<?xml version="1.0" encoding="utf-8"?>
<!-- Generator: Adobe Illustrator 21.1.0, SVG Export Plug-In . SVG Version: 6.00 Build 0)  -->
<svg version="1.1" id="Layer_1" xmlns="http://www.w3.org/2000/svg" xmlns:xlink="http://www.w3.org/1999/xlink" x="0px" y="0px"
	 viewBox="0 0 3370.4 2383.9" style="enable-background:new 0 0 3370.4 2383.9;" xml:space="preserve">
<style type="text/css">
	.st0{fill:none;stroke:#000000;stroke-width:141.7323;stroke-miterlimit:10;}
	.st1{fill:#ED1C24;}
</style>
<g>
	<path class="st0" d="M425.2,1958.7h630 M1685.2,1192V425.2 M2315.2,1192V425.2h-630V1192H2315.2z M1055.2,1958.7h630V1192
		 M2315.2,1192v766.8 M2945.2,425.2h-630V1192 M1685.2,1192v766.8h630V1192H1685.2z"/>
	<rect x="269.3" y="1802.8" class="st1" width="311.8" height="311.8"/>
	<rect x="1529.3" y="1802.8" class="st1" width="311.8" height="311.8"/>
	<rect x="899.3" y="1802.8" class="st1" width="311.8" height="311.8"/>
	<rect x="2159.3" y="1036.1" class="st1" width="311.8" height="311.8"/>
	<rect x="2789.3" y="269.3" class="st1" width="311.8" height="311.8"/>
	<rect x="2159.3" y="269.3" class="st1" width="311.8" height="311.8"/>
	<rect x="1529.3" y="1036.1" class="st1" width="311.8" height="311.8"/>
	<rect x="1529.3" y="269.3" class="st1" width="311.8" height="311.8"/>
	<rect x="2159.3" y="1802.8" class="st1" width="311.8" height="311.8"/>
</g>
</svg>
